<?xml version="1.0" encoding="UTF-8"?>
<svg id="Layer_1" data-name="Layer 1" xmlns="http://www.w3.org/2000/svg" viewBox="0 0 1041.02 258.96">
  <defs>
    <style>
      .cls-1 {
        fill: #eb4535;
      }

      .cls-1, .cls-2, .cls-3, .cls-4 {
        stroke-width: 0px;
      }

      .cls-2 {
        fill: #f8bb1a;
      }

      .cls-3 {
        fill: #30a851;
      }

      .cls-4 {
        fill: #547dbf;
      }
    </style>
  </defs>
  <path class="cls-4" d="M210.44,34.49h24.34l-48.43,181.55h-23.83l-39.05-119.68h-1.01l-39.05,119.68h-23.83L9.11,34.49h24.34l38.29,142.75h1.01l39.3-118.41h21.81l39.3,118.41h1.01l36.26-142.75Z"/>
  <path class="cls-1" d="M294.87,220.1c-18.26,0-33.3-6.25-45.13-18.76-11.83-12.51-17.75-28.31-17.75-47.42s5.75-34.69,17.24-47.29c11.49-12.59,26.2-18.89,44.12-18.89s33.09,5.96,43.99,17.88c10.9,11.92,16.35,28.61,16.35,50.08l-.25,2.54h-97.62c.34,12.17,4.39,21.98,12.17,29.41,7.77,7.44,17.07,11.16,27.89,11.16,14.87,0,26.54-7.44,34.99-22.31l20.79,10.14c-5.58,10.48-13.31,18.68-23.2,24.6-9.89,5.92-21.09,8.87-33.6,8.87ZM257.6,138.96h71.25c-.68-8.62-4.18-15.76-10.52-21.43-6.34-5.66-14.83-8.49-25.48-8.49-8.79,0-16.35,2.71-22.69,8.11-6.34,5.41-10.52,12.68-12.55,21.81Z"/>
  <path class="cls-2" d="M398.32,34.49v181.55h-23.33V34.49h23.33Z"/>
  <path class="cls-4" d="M482.25,220.1c-18.43,0-33.72-6.25-45.89-18.76-12-12.84-18-28.65-18-47.42s6-34.9,18-47.42c12.17-12.51,27.47-18.76,45.89-18.76,12.68,0,23.75,3.17,33.22,9.51,9.46,6.34,16.56,15.09,21.3,26.24l-21.3,8.87c-6.59-15.55-18.17-23.33-34.74-23.33-10.65,0-19.86,4.31-27.64,12.93-7.61,8.62-11.41,19.27-11.41,31.95s3.8,23.33,11.41,31.95c7.77,8.62,16.99,12.93,27.64,12.93,17.07,0,29.07-7.77,36.01-23.33l20.79,8.87c-4.56,11.16-11.71,19.9-21.43,26.24-9.72,6.34-21.01,9.51-33.85,9.51Z"/>
  <path class="cls-1" d="M549.45,153.92c0-19.1,6-34.9,18-47.42,12.17-12.51,27.47-18.76,45.89-18.76s33.64,6.26,45.64,18.76c12.17,12.51,18.26,28.32,18.26,47.42s-6.08,35.08-18.26,47.42c-12,12.51-27.22,18.76-45.64,18.76s-33.72-6.25-45.89-18.76c-12-12.51-18-28.31-18-47.42ZM572.77,153.92c0,13.35,3.89,24.17,11.66,32.46,7.77,8.28,17.41,12.42,28.91,12.42s21.13-4.14,28.91-12.42c7.77-8.28,11.66-19.1,11.66-32.46s-3.89-23.92-11.66-32.2c-7.95-8.45-17.58-12.68-28.91-12.68s-20.96,4.23-28.91,12.68c-7.78,8.28-11.66,19.02-11.66,32.2Z"/>
  <path class="cls-3" d="M719.33,216.04h-23.33v-124.24h22.31v17.24h1.01c3.55-6.09,9-11.16,16.35-15.21,7.35-4.06,14.66-6.08,21.93-6.08,9.13,0,17.16,2.12,24.09,6.34,6.93,4.23,12,10.06,15.21,17.5,10.31-15.89,24.6-23.83,42.85-23.83,14.37,0,25.44,4.4,33.22,13.18,7.77,8.79,11.66,21.3,11.66,37.53v77.59h-23.33v-74.04c0-11.66-2.12-20.07-6.34-25.23-4.23-5.15-11.33-7.73-21.3-7.73-8.96,0-16.48,3.8-22.57,11.41-6.08,7.61-9.13,16.57-9.13,26.88v68.71h-23.33v-74.04c0-11.66-2.12-20.07-6.34-25.23-4.23-5.15-11.33-7.73-21.3-7.73-8.96,0-16.48,3.8-22.57,11.41-6.08,7.61-9.13,16.57-9.13,26.88v68.71Z"/>
  <path class="cls-2" d="M967.82,220.1c-18.26,0-33.3-6.25-45.13-18.76-11.83-12.51-17.75-28.31-17.75-47.42s5.75-34.69,17.24-47.29c11.49-12.59,26.2-18.89,44.12-18.89s33.09,5.96,43.99,17.88c10.9,11.92,16.35,28.61,16.35,50.08l-.25,2.54h-97.62c.34,12.17,4.39,21.98,12.17,29.41,7.77,7.44,17.07,11.16,27.89,11.16,14.87,0,26.54-7.44,34.99-22.31l20.79,10.14c-5.58,10.48-13.31,18.68-23.2,24.6-9.89,5.92-21.09,8.87-33.6,8.87ZM930.54,138.96h71.25c-.68-8.62-4.18-15.76-10.52-21.43-6.34-5.66-14.83-8.49-25.48-8.49-8.79,0-16.35,2.71-22.69,8.11-6.34,5.41-10.52,12.68-12.55,21.81Z"/>
</svg>